<?xml version="1.0" encoding="UTF-8" standalone="no"?>
<!-- Created with Inkscape (http://www.inkscape.org/) -->

<svg
   width="500"
   height="500"
   viewBox="0 0 106.84841 106.84841"
   version="1.1"
   id="svg5"
   inkscape:version="1.2.2 (b0a8486, 2022-12-01)"
   sodipodi:docname="portrait4.svg"
   inkscape:export-filename="portrait4.png"
   inkscape:export-xdpi="96"
   inkscape:export-ydpi="96"
   xmlns:inkscape="http://www.inkscape.org/namespaces/inkscape"
   xmlns:sodipodi="http://sodipodi.sourceforge.net/DTD/sodipodi-0.dtd"
   xmlns="http://www.w3.org/2000/svg"
   xmlns:svg="http://www.w3.org/2000/svg">
  <sodipodi:namedview
     id="namedview7"
     pagecolor="#ffffff"
     bordercolor="#000000"
     borderopacity="0.25"
     inkscape:showpageshadow="2"
     inkscape:pageopacity="0.0"
     inkscape:pagecheckerboard="0"
     inkscape:deskcolor="#d1d1d1"
     inkscape:document-units="mm"
     showgrid="false"
     inkscape:zoom="1.0289025"
     inkscape:cx="412.08957"
     inkscape:cy="244.92116"
     inkscape:window-width="750"
     inkscape:window-height="736"
     inkscape:window-x="115"
     inkscape:window-y="69"
     inkscape:window-maximized="0"
     inkscape:current-layer="layer1" />
  <defs
     id="defs2" />
  <g
     inkscape:label="Layer 1"
     inkscape:groupmode="layer"
     id="layer1">
    <path
       style="fill:#000000;stroke-width:0.213697"
       id="path115"
       d="m 37.219714,19.211151 c -0.783026,-0.0065 -1.530065,0.144785 -2.264212,0.408595 -0.864891,0.335737 -1.649152,0.816704 -2.343461,1.428402 -0.505895,0.476787 -0.989241,0.974444 -1.420907,1.519097 -0.40706,0.493871 -0.802493,0.995122 -1.145083,1.536119 -0.298018,0.478891 -0.620642,0.942799 -0.865799,1.451904 -0.23153,0.448615 -0.460844,0.895336 -0.639646,1.368264 -0.183739,0.585811 -0.399981,1.159361 -0.604811,1.737917 -0.204865,0.642567 -0.372824,1.296191 -0.539418,1.949494 -0.04914,0.328217 -0.14996,0.639794 -0.258041,0.951778 -0.05527,0.14344 -0.08096,0.296231 -0.109287,0.446802 -0.0067,0.134312 -0.0069,0.269399 -0.0024,0.403844 -0.0035,0.153327 0.0035,0.306529 0.0027,0.459856 -0.0015,0.170851 -8.55e-4,0.341881 0.0027,0.512747 0.0011,0.20314 -0.0015,0.406321 0.0015,0.609454 -8.55e-4,0.298516 0.01045,0.596781 0.01643,0.895211 0.03228,0.662864 0.246436,1.291741 0.430666,1.923254 0.24211,0.770661 0.493516,1.538256 0.733121,2.309721 0.222723,0.63785 0.450825,1.274513 0.684868,1.908654 0.310966,0.802778 0.592075,1.617595 0.874181,2.431066 0.215763,0.687194 0.52613,1.335531 0.838236,1.982156 0.271068,0.551227 0.573346,1.087215 0.883822,1.617123 0.279541,0.55671 0.580948,1.097871 0.913063,1.62473 0.315207,0.502192 0.63048,1.00339 1.027148,1.445649 0.342411,0.347573 0.675614,0.704428 1.005297,1.064082 0.237558,0.26686 0.499625,0.506882 0.773394,0.735317 0.288305,0.260439 0.543822,0.54899 0.798675,0.841722 0.303347,0.339336 0.605488,0.676447 0.881053,1.039001 0.395913,0.544354 0.764594,1.107372 1.123714,1.676409 0.311715,0.471729 0.550282,0.982092 0.80376,1.485327 0.123603,0.257877 0.223531,0.526087 0.325349,0.793074 0.07032,0.272141 0.209464,0.50286 0.363672,0.733491 0.112137,0.153498 0.276158,0.243862 0.437555,0.336245 2.873775,1.644951 1.774344,1.405828 2.986674,1.652334 0.304156,0.161388 0.658476,0.161576 0.975124,0.279526 0.383021,0.104479 0.77371,0.148998 1.168928,0.169618 0.68043,0.01002 1.360781,-0.01195 2.041078,-0.02216 1.051843,0.04983 2.101629,0.131347 3.153761,0.176593 0.729655,0.112184 1.470021,0.14888 2.199041,0.260338 0.622229,0.09175 1.24641,0.169088 1.875053,0.195078 0.555284,0.02318 1.111123,0.01577 1.666713,0.01609 0.619821,0.03473 1.22905,-0.04305 1.842842,-0.112501 0.661027,-0.121245 1.312389,-0.285708 1.942577,-0.519614 0.656314,-0.270743 1.280715,-0.617565 1.895194,-0.972231 0.552039,-0.270737 1.063434,-0.615259 1.558999,-0.977112 0.619779,-0.499185 1.175549,-1.070236 1.747318,-1.62217 0.443925,-0.410003 0.847889,-0.85758 1.190003,-1.355195 0.243448,-0.397147 0.404103,-0.837781 0.560693,-1.274524 0.192404,-0.570329 0.432572,-1.120675 0.696675,-1.66095 0.269203,-0.628771 0.542139,-1.258087 0.791247,-1.895512 0.369655,-0.967933 0.652731,-1.956721 0.855456,-2.972085 0.277753,-1.370531 0.421624,-2.761909 0.507827,-4.156076 0.03019,-0.989895 0.09179,-1.975069 0.192936,-2.959872 0.07137,-0.957122 0.197879,-1.910058 0.333011,-2.860075 0.146869,-1.225479 0.367592,-2.438302 0.583601,-3.652639 0.13951,-0.709563 0.221482,-1.426127 0.245405,-2.148354 0.0032,-0.818976 -0.01199,-1.638078 -0.02207,-2.45703 -0.01699,-1.11257 -0.02306,-2.225163 -0.01477,-3.337821 -0.01002,-0.773629 0.06981,-1.545357 -0.0039,-2.316561 -0.02454,-0.584132 -0.277002,-1.081299 -0.590417,-1.560046 -0.513849,-0.664038 -1.117497,-1.248943 -1.728341,-1.822024 -0.491828,-0.450458 -0.977843,-0.908139 -1.514476,-1.305148 -1.360796,-1.01408 -2.861107,-1.795403 -4.331378,-2.642156 -0.648647,-0.371641 -1.33316,-0.680605 -2.018003,-0.979315 -0.68892,-0.252488 -1.408918,-0.394812 -2.13076,-0.514742 -0.903526,-0.200794 -1.818321,-0.342841 -2.726116,-0.520554 -0.927376,-0.136822 -1.848789,-0.307561 -2.781116,-0.408805 -0.769211,-0.06115 -1.537305,-0.08775 -2.304043,-0.174008 -0.678872,-0.09792 -1.347861,-0.229612 -2.032905,-0.285529 -0.849399,-0.06974 -1.693224,-0.05996 -2.536794,0.05713 -1.106206,0.12963 -2.190728,0.375128 -3.276231,0.615649 -0.895163,0.228899 -1.767865,0.545646 -2.630659,0.875241 -0.768125,0.291747 -1.49382,0.675573 -2.171763,1.137833 -0.44622,0.334267 -0.903961,0.653867 -1.371427,0.957269 -0.300314,0.214808 -0.547863,0.484735 -0.825479,0.726275 -0.05385,0.05936 -0.107692,0.11871 -0.161539,0.178065 0,0 2.679332,1.639266 2.679332,1.639266 v 0 c 0.0532,-0.04924 0.106409,-0.09847 0.159613,-0.147709 0.272399,-0.228955 0.514539,-0.490481 0.800322,-0.704018 0.443626,-0.325731 0.889577,-0.648105 1.324461,-0.98569 0.654094,-0.450526 1.35743,-0.820254 2.104446,-1.093739 0.847782,-0.315861 1.69787,-0.635359 2.574277,-0.862985 1.0784,-0.249899 2.162885,-0.47887 3.267166,-0.581053 0.848665,-0.07323 1.698808,-0.05291 2.54683,0.02942 0.680107,0.07771 1.349532,0.221277 2.030917,0.287708 0.757361,0.07766 1.519038,0.07262 2.276159,0.155759 0.924051,0.110535 1.842182,0.266624 2.759784,0.420442 0.916464,0.165523 1.831102,0.338249 2.742185,0.531854 0.716547,0.147225 1.436767,0.295097 2.110575,0.589904 0.679799,0.30569 1.357648,0.617693 1.998512,1.000464 -4.619036,-2.680713 -1.981291,-1.202835 -0.978931,-0.463612 0.502664,0.41742 -0.09852,-0.06657 0.438145,0.317369 0.407937,0.291847 0.758523,0.664762 1.141075,0.986937 0.605649,0.552026 1.19501,1.115768 1.722319,1.744754 0.307816,0.426483 0.586615,0.881546 0.636772,1.417224 0.116501,0.771961 0.10993,1.550783 0.114892,2.330392 0.0089,1.108661 0.0042,2.217269 -0.0094,3.32589 -0.0076,0.805818 -0.0125,1.611665 -0.03482,2.417255 -0.01846,0.720188 -0.05074,1.440528 -0.147853,2.155222 -0.169118,1.22373 -0.374638,2.441834 -0.565839,3.662171 -0.163017,0.942854 -0.336393,1.887217 -0.410446,2.842025 -0.07916,1.005849 -0.09308,2.01003 -0.102713,3.018773 -0.06616,1.379772 -0.171881,2.761982 -0.498046,4.108901 -0.224841,0.986304 -0.529883,1.945476 -0.917304,2.880654 -0.251774,0.627587 -0.541299,1.241232 -0.809063,1.861767 -0.255844,0.553952 -0.506615,1.10926 -0.726661,1.678713 -0.149989,0.410678 -0.319987,0.818241 -0.52993,1.20169 -0.32274,0.479418 -0.668858,0.945253 -1.094318,1.340379 -0.557361,0.550987 -1.126041,1.095162 -1.758068,1.560982 -0.491879,0.349068 -1.005942,0.665098 -1.535468,0.953992 -0.601142,0.342028 -1.200826,0.701387 -1.85655,0.929376 -0.624929,0.204525 -1.265329,0.364473 -1.917624,0.453168 -0.608205,0.07066 -1.215792,0.102023 -1.828409,0.07877 -0.553315,-6.41e-4 -1.106877,-0.0057 -1.659655,-0.03175 -0.616173,-0.04219 -1.230558,-0.103863 -1.840872,-0.200447 -0.722477,-0.08497 -1.447747,-0.154168 -2.173299,-0.205538 -1.051446,-0.03997 -2.100992,-0.111943 -3.152009,-0.160228 -0.708358,-0.01077 -1.417996,-0.01737 -2.124796,-0.06833 -0.385844,-0.03928 -0.767567,-0.10844 -1.137564,-0.227461 -0.334151,-0.07256 -0.659519,-0.166828 -0.975453,-0.299141 -1.013399,-0.515189 -0.227666,-0.118503 2.484461,1.445629 0.291378,0.168043 -0.731741,-0.465346 -0.474781,-0.250378 C 42.246867,59.57771 42.089774,59.347035 42.030104,59.107196 41.922377,58.825065 41.81499,58.543614 41.687862,58.270093 41.42207,57.748159 41.150284,57.230133 40.839951,56.732076 40.483197,56.173391 40.146063,55.602043 39.763131,55.06039 39.513542,54.674528 39.226019,54.323593 38.904162,53.995395 38.654297,53.70821 38.439713,53.386689 38.138229,53.150955 37.914812,52.865132 37.578985,52.688451 37.338497,52.41587 37.010759,52.042903 36.662999,51.688863 36.316379,51.333885 35.893928,50.920399 35.560832,50.451712 35.25874,49.943691 34.928168,49.416856 34.576948,48.905148 34.335952,48.327327 34.033648,47.797194 33.718866,47.274372 33.440479,46.730984 33.128563,46.078678 32.771313,45.445804 32.536569,44.758959 32.265497,43.95042 31.979395,43.145736 31.704481,42.339388 31.471641,41.705101 31.263199,41.063037 31.000142,40.440615 30.766736,39.6666 30.49363,38.905261 30.255471,38.132454 c -0.164098,-0.596368 -0.352888,-1.191469 -0.39745,-1.811074 0.006,-0.292848 0.01748,-0.585525 0.01643,-0.878465 0.003,-0.202612 4.27e-4,-0.405276 0.0015,-0.607897 0.0037,-0.170073 0.0042,-0.340317 0.0025,-0.510374 -0.0011,-0.153193 0.0055,-0.306292 4.27e-4,-0.459466 0.0032,-0.123307 -8.55e-4,-0.246708 0.0019,-0.370058 -0.0023,-0.135907 0.01342,-0.271925 0.05019,-0.402981 0.08921,-0.332649 0.205508,-0.655327 0.219362,-1.003762 0.11434,-0.653143 0.29064,-1.293806 0.491992,-1.925013 0.219661,-0.571449 0.439893,-1.141889 0.635019,-1.722067 0.166045,-0.469588 0.413063,-0.897593 0.632697,-1.34304 0.222048,-0.505442 0.535943,-0.960982 0.819833,-1.432797 0.330571,-0.536462 0.734687,-1.018113 1.137018,-1.501386 0.415023,-0.52859 0.854691,-1.037802 1.346801,-1.497013 0.669657,-0.577357 1.422563,-1.036667 2.257312,-1.338204 0.758681,-0.222119 1.531413,-0.332536 2.322912,-0.247377 0,0 -2.57428,-1.870323 -2.57428,-1.870323 z" />
    <path
       style="fill:#000000;stroke-width:0.213697"
       d="m 38.838765,21.392474 c -0.120978,1.201215 0.767533,2.15815 1.246164,3.115411 0.143111,0.286223 0.487096,0.279402 0.623082,0.415386 0.156991,0.156992 0.0901,0.415388 0.415386,0.415388"
       id="path180" />
    <path
       style="fill:#000000;stroke-width:0.213697"
       d="m 39.877235,18.692454 c 0.619223,0.199978 -0.154806,0.728858 0,1.03847 0.245123,0.490244 0.942903,0.791272 1.246162,1.246163 0.12693,0.190392 0.874164,1.371704 1.038471,1.453857 0.06192,0.03096 0.15874,-0.04895 0.207694,0 0.04895,0.04895 -0.04895,0.158741 0,0.207694 0.09791,0.09791 0.317481,-0.09791 0.415388,0 0.04895,0.04895 -0.04895,0.158741 0,0.207694 0.109464,0.109464 0.305924,0.09823 0.415388,0.207694"
       id="path182" />
    <path
       style="fill:#000000;stroke-width:0.213697"
       d="m 43.408032,16.200127 c 0,0.276925 -0.06716,0.562118 0,0.830775 0.121532,0.486128 1.317591,2.907715 1.869245,2.907715"
       id="path184" />
    <path
       style="fill:#000000;stroke-width:0.213697"
       d="m 47.769603,15.992433 c -0.108265,1.230467 -0.07965,2.125339 0.415388,3.115409 0.08757,0.175143 0.327818,0.240245 0.415389,0.415387 0.539785,1.07957 -0.108885,0.514198 1.246164,1.869245"
       id="path186" />
    <path
       style="fill:#000000;stroke-width:0.213697"
       d="m 52.546565,17.030902 c -0.0468,0.700618 0.186942,3.71774 0.623082,4.153879 0.04895,0.04895 0.15874,-0.04895 0.207694,0 0.04895,0.04895 -0.04895,0.15874 0,0.207693 0.08869,0.08869 0.851112,0.02034 1.246162,0.415388"
       id="path188" />
    <path
       style="fill:#000000;stroke-width:0.213697"
       d="m 58.1543,17.238596 c 0.351162,0.40805 -0.380192,1.904442 0,2.284633 0.04895,0.04895 0.158741,-0.04895 0.207694,0 0.843079,0.843078 -0.843076,-0.427689 0,0.415388 0.103848,0.103847 0.311542,0.103847 0.415388,0.207694 0.23093,0.230929 0.187192,0.830776 0.623083,0.830776"
       id="path190" />
    <path
       style="fill:#000000;stroke-width:0.213697"
       d="m 64.592812,19.315536 c -0.464615,1.860932 -0.399989,3.976982 0.415388,5.607735 0.160822,0.321641 -0.116247,0.299141 0.207694,0.623082"
       id="path192" />
    <path
       style="fill:#000000;stroke-width:0.213697"
       d="m 61.062015,18.277066 c 0.205269,0.149711 -0.231248,2.88416 0,3.115408 0.04895,0.04896 0.15874,-0.04895 0.207694,0 0.04895,0.04896 -0.03096,0.145773 0,0.207694 0.237864,0.475725 0.623082,0.644009 0.623082,1.246164"
       id="path194" />
    <path
       style="fill:#1a1a1a;stroke-width:0.213697"
       d="m 35.100274,23.469415 c 1.468618,-0.192934 -0.293722,0.95244 0,1.246162 0.04895,0.04896 0.15874,-0.04895 0.207694,0 0.06923,0.06923 0.138463,0.553851 0.207694,0.623082 0.04895,0.04895 0.15874,-0.04895 0.207694,0 0.08703,0.08703 0.144756,0.497206 0.207694,0.623082 0.149199,0.298398 0.266189,0.116991 0.415388,0.415388 0.06192,0.123844 -0.09791,0.317481 0,0.415388 0.0369,0.0369 0.475604,0.26791 0.623082,0.415389"
       id="path196" />
    <path
       style="fill:#1a1a1a;stroke-width:0.213697"
       id="path247"
       d="m 33.197291,34.2506 c 0.695538,-0.53839 1.451668,-0.99197 2.21548,-1.427315 0.907254,-0.577731 1.909103,-0.946561 2.890645,-1.367591 0.592246,-0.217486 1.184906,-0.437234 1.807033,-0.550624 0.562416,-0.08119 1.132557,-0.08502 1.699719,-0.08827 0.679915,0.023 1.321148,0.228481 1.956877,0.452621 0.594368,0.251141 1.181386,0.517302 1.748245,0.82585 -0.164239,-0.119001 0.646546,0.34274 0.487979,0.251423 -0.816008,-0.469926 -3.257235,-1.891159 -2.450331,-1.405766 0.95525,0.574631 1.940382,1.098598 2.895453,1.673528 0.819563,0.49336 -1.655071,-0.959849 -2.488859,-1.428768 -0.06481,-0.03645 0.120506,0.08713 0.18076,0.130703 0.39732,0.28913 0.66015,0.667578 0.82828,1.123302 0.149868,0.552301 0.159516,1.129729 0.168571,1.698394 0.02282,0.450321 -0.09317,0.837294 -0.425163,1.146958 -0.446987,0.381968 -0.983492,0.629339 -1.541666,0.799332 -0.75531,0.272983 -1.557341,0.330087 -2.351875,0.377577 -1.009837,0.0444 -2.021228,0.04021 -3.031755,0.02874 -0.744626,-0.0061 -1.489261,-0.01006 -2.233865,-0.01853 -0.623774,0.04751 -1.225093,-0.07164 -1.827639,-0.213406 -1.21741,-0.342633 -3.685161,-1.913349 1.0438,0.793747 -0.458027,-0.283975 -0.844537,-0.653404 -1.187388,-1.065469 -0.192329,-0.214062 -0.352433,-0.452795 -0.526266,-0.680942 0,0 -2.929354,-1.235281 -2.929354,-1.235281 v 0 c 0.214019,0.211598 0.362908,0.465205 0.566645,0.687676 0.351901,0.427018 0.708646,0.84662 1.169344,1.163184 1.409423,0.822186 2.738752,1.830958 4.340572,2.220857 0.615545,0.127998 1.234819,0.18554 1.864487,0.156834 0.731104,-0.0065 1.462231,-0.0068 2.193346,-0.01163 1.008159,-0.01276 2.016595,-0.01656 3.024228,-0.05545 0.832187,-0.04547 1.663681,-0.11776 2.453902,-0.40462 0.592344,-0.210769 1.168321,-0.486255 1.644468,-0.904506 0.367404,-0.38222 0.591019,-0.829268 0.53605,-1.372957 -0.0085,-0.593118 -0.02431,-1.187475 -0.126669,-1.773511 -0.119623,-0.504707 -0.332572,-0.94892 -0.736322,-1.290169 -1.057624,-0.931248 0.632816,0.537841 -3.042,-1.841872 -0.79411,-0.514244 3.277126,1.892429 2.456222,1.422138 -1.132202,-0.648634 -2.216503,-1.351447 -3.384062,-1.920919 -0.575079,-0.285227 -1.155967,-0.560697 -1.761947,-0.775085 -0.660652,-0.210903 -1.33082,-0.386071 -2.030799,-0.378561 -0.583604,0.0086 -1.172668,0.0063 -1.74601,0.131098 -0.620755,0.14896 -1.215458,0.382746 -1.802,0.632923 -0.960946,0.444885 -1.919453,0.884624 -2.820042,1.447835 -0.803478,0.446652 -1.612808,0.882783 -2.41927,1.323381 0,0 2.691176,1.72313 2.691176,1.72313 z" />
    <path
       style="fill:#1a1a1a;stroke-width:0.213697"
       id="path249"
       d="m 52.033545,34.885944 c 4.747407,2.714871 2.714028,1.776958 1.851087,0.879512 -0.300845,-0.292014 -0.412121,-0.664545 -0.521983,-1.05463 -0.108633,-0.36856 -0.17241,-0.746381 -0.210854,-1.12787 -0.03821,-0.265961 0.03156,-0.514142 0.165192,-0.741883 0.189365,-0.367381 0.454785,-0.682244 0.725348,-0.991089 0.314308,-0.406556 0.726873,-0.662099 1.202148,-0.839636 0.616271,-0.214492 1.242907,-0.404449 1.871276,-0.581811 0.611374,-0.191567 1.211016,-0.417506 1.820701,-0.613859 0.495711,-0.150317 0.980758,-0.315244 1.494906,-0.390939 0.534441,-0.0569 1.072946,-0.05452 1.609735,-0.06066 0.635408,-0.01868 1.265164,-0.0072 1.883844,0.148124 0.522363,0.09968 0.97247,0.368512 1.433729,0.613819 -5.035597,-2.583919 -2.891573,-1.877978 -2.161956,-1.16945 0.150081,0.145746 0.281516,0.313829 0.42201,0.468747 0.288825,0.316023 0.50662,0.684453 0.713799,1.056532 0.199401,0.363658 0.261373,0.767851 0.295784,1.174887 0.04163,0.399594 0.0103,0.769886 -0.107523,1.15239 -0.149943,0.463534 -0.472198,0.79085 -0.869372,1.053949 -0.62401,0.402487 -1.313975,0.659618 -2.021703,0.870244 -0.809024,0.201646 -1.626397,0.363447 -2.445281,0.518757 -0.684381,0.08145 -1.363441,0.185741 -2.045367,0.28488 -0.590564,0.08121 -1.187248,0.09517 -1.782439,0.102709 -0.608422,0.008 -1.216902,0.0046 -1.825329,-8.55e-4 -0.561273,0.0191 -1.11401,-0.01263 -1.661536,-0.139803 0,0 2.478821,1.87495 2.478821,1.87495 v 0 c 0.567002,0.09054 1.134987,0.12372 1.709273,0.100981 0.606038,-0.0042 1.212084,-0.0042 1.818084,-0.01239 0.604802,-0.01624 1.212631,-0.0301 1.810086,-0.134791 0.672316,-0.112819 1.34694,-0.206299 2.01957,-0.316731 0.821463,-0.163162 1.641474,-0.333313 2.449634,-0.554911 0.740026,-0.232425 1.474893,-0.491547 2.131626,-0.913823 0.439256,-0.322152 0.803466,-0.695446 0.986766,-1.221724 0.136001,-0.413616 0.238272,-0.813905 0.170246,-1.253505 -0.02395,-0.440824 -0.06589,-0.884503 -0.245655,-1.293718 -0.189489,-0.392012 -0.406629,-0.777348 -0.67834,-1.11822 -1.021197,-1.284739 -1.690914,-1.539642 -3.603768,-2.493258 -0.463329,-0.247378 -0.951077,-0.439662 -1.471546,-0.52862 -0.635823,-0.09941 -1.274962,-0.108308 -1.917655,-0.09362 -0.55742,-7.7e-5 -1.118447,-0.0038 -1.670537,0.08394 -0.509355,0.109047 -0.995846,0.289623 -1.491531,0.44724 -0.600514,0.206476 -1.20026,0.415597 -1.805028,0.609335 -0.639185,0.188356 -1.282047,0.369924 -1.908345,0.59765 -0.50247,0.224149 -0.954821,0.513325 -1.302251,0.948572 -0.278913,0.322883 -0.551287,0.655404 -0.770463,1.022559 -0.179264,0.275245 -0.287443,0.589576 -0.262263,0.922747 0.03301,0.402235 0.106549,0.797777 0.210006,1.187876 0.104489,0.40767 0.16311,0.844438 0.449644,1.172758 0.849876,1.146483 2.424862,1.634323 3.546249,2.345559 0,0 -2.488839,-1.990836 -2.488839,-1.990836 z" />
    <path
       style="fill:#1a1a1a;stroke-width:0.213697"
       id="path251"
       d="m 68.475593,31.884419 c 0.731187,-0.04907 1.464768,-0.04262 2.197143,-0.03625 0.66149,0.0011 1.245271,-0.250336 1.77771,-0.622326 0.250076,-0.160925 0.130669,-0.07394 0.35851,-0.260569 0,0 -2.669049,-1.67386 -2.669049,-1.67386 v 0 c -0.206107,0.165528 -0.09565,0.0827 -0.332929,0.246391 -0.491548,0.328706 -1.014746,0.520952 -1.616614,0.506814 -0.765706,0.0068 -1.532224,0.0096 -2.296927,-0.03625 0,0 2.582156,1.876047 2.582156,1.876047 z" />
    <path
       style="fill:#1a1a1a;stroke-width:0.213697"
       id="path253"
       d="m 30.15812,32.918949 c -0.544578,-0.05541 -1.034792,-0.286076 -1.52685,-0.506487 -1.076806,-0.689871 0.269567,0.177913 2.279961,1.287283 0.0629,0.03471 -0.112473,-0.08973 -0.164455,-0.139319 -0.153945,-0.146868 -0.266196,-0.322231 -0.37969,-0.500179 -0.176172,-0.338352 -0.324755,-0.692262 -0.4192,-1.062255 0,0 -2.860341,-1.368059 -2.860341,-1.368059 v 0 c 0.101983,0.395737 0.247579,0.772916 0.407511,1.148685 0.692791,1.375765 2.15424,1.961847 3.581839,2.569629 0.527675,0.225266 1.078293,0.406889 1.655503,0.441025 0,0 -2.574278,-1.870323 -2.574278,-1.870323 z" />
    <path
       style="fill:#1a1a1a;stroke-width:0.213697"
       id="path255"
       d="m 48.367999,32.661626 c 0.410127,-0.09448 0.831144,-0.130123 1.250642,-0.15058 0.311702,-0.0119 0.623875,-0.01387 0.935767,-0.0097 0.154403,0.0073 0.308828,0.0076 0.463282,0.01148 0.129423,-0.0011 0.258889,-0.0029 0.388321,-6.42e-4 0.08203,0.0052 0.163904,0.0011 0.245978,0.0019 0.102767,0.0082 0.187543,-0.04324 0.222273,0.07073 0,0 -2.518832,-1.980974 -2.518832,-1.980974 v 0 c -0.102196,0.02126 -0.199693,0.02471 -0.303721,0.02105 -0.08017,8.55e-4 -0.160142,-0.0033 -0.240253,0.0019 -0.129912,0.0022 -0.259874,5.5e-5 -0.389772,-0.0017 -0.146132,0.0028 -0.292202,0.0013 -0.438249,0.0096 -0.311461,0.0066 -0.623236,0.0095 -0.933635,0.03977 -0.432014,0.04583 -0.86197,0.104553 -1.291703,0.168387 0,0 2.609902,1.818596 2.609902,1.818596 z" />
    <path
       style="fill:#1a1a1a;stroke-width:0.213697"
       id="path259"
       d="m 47.593846,37.798247 c 0.03431,0.568972 0.04192,1.139444 0.04927,1.709344 0.0015,0.854601 0.03056,1.704518 -0.05578,2.555822 -0.133843,0.921181 -0.425774,1.546137 -0.957681,2.289554 -0.555464,0.648374 -0.998737,1.376481 -1.442231,2.102623 -0.373952,0.654838 -0.194272,0.322892 -0.53892,0.995904 0,0 2.615968,1.492454 2.615968,1.492454 v 0 c 0.333055,-0.653925 0.153562,-0.333313 0.538802,-0.96165 0.473071,-0.702045 0.939253,-1.409202 1.475756,-2.06547 0.153828,-0.215936 0.32602,-0.442408 0.449712,-0.678156 0.287194,-0.547369 0.431373,-1.162673 0.547506,-1.764396 0.118166,-0.852195 0.126024,-1.708326 0.11218,-2.567879 0.0072,-0.553156 0.01423,-1.106984 0.04927,-1.65914 0,0 -2.843843,-1.44901 -2.843843,-1.44901 z" />
    <path
       style="fill:#1a1a1a;stroke-width:0.213697"
       id="path261"
       d="m 52.5785,38.213635 c 0.03498,0.50674 0.03487,1.015231 0.03284,1.522938 -8.55e-4,0.462391 -0.04009,0.920829 0.03548,1.378627 0.09526,0.453362 0.258116,0.889962 0.433995,1.317477 0.183352,0.413427 0.359714,0.830873 0.505149,1.259192 0.256022,0.738371 0.446815,1.4952 0.63846,2.252045 0.118792,0.476113 0.182314,0.9622 0.221106,1.450487 0,0 2.80254,1.398893 2.80254,1.398893 v 0 c -0.0441,-0.511823 -0.117974,-1.020229 -0.245412,-1.518713 -0.187081,-0.753666 -0.392929,-1.502233 -0.605307,-2.2493 -0.108857,-0.443671 -0.263642,-0.868616 -0.448793,-1.2857 -0.206953,-0.392405 -0.350209,-0.816771 -0.476253,-1.240991 -0.06981,-0.447144 -0.09969,-0.891684 -0.0828,-1.346474 -0.0019,-0.496531 -0.0031,-0.993981 0.03284,-1.489471 0,0 -2.843845,-1.44901 -2.843845,-1.44901 z" />
    <path
       style="fill:#1a1a1a;stroke-width:0.213697"
       id="path263"
       d="m 49.367752,50.784566 c 0.395538,-0.0209 0.791815,-0.01333 1.18768,-0.01077 0.346907,0.0336 0.630328,-0.04308 0.86425,-0.304877 0.167264,-0.171783 0.316754,-0.352356 0.486726,-0.521901 0.20139,-0.139476 0.362075,-0.291363 0.486874,-0.505276 0.0586,-0.156071 0.03354,-0.08054 0.0767,-0.226093 0,0 -2.809662,-1.517955 -2.809662,-1.517955 v 0 c -0.01893,0.105022 -0.007,0.05423 -0.03511,0.152529 -0.09693,0.189416 -0.282845,0.282199 -0.430001,0.428891 -0.175616,0.164686 -0.310978,0.362351 -0.48662,0.526874 -0.200244,0.153693 -0.469113,0.100796 -0.705672,0.113298 -0.405763,0.0027 -0.811844,0.0094 -1.217321,-0.01077 0,0 2.582156,1.876047 2.582156,1.876047 z" />
    <path
       style="fill:#1a1a1a;stroke-width:0.213697"
       id="path265"
       d="m 53.937017,50.369178 c 0.354463,0.0071 0.693102,-0.01365 1.038099,-0.0932 0.346325,-0.08117 0.70169,-0.102865 1.055897,-0.116381 0.345847,-0.02591 0.514409,0.111469 0.733559,-0.200657 0.06316,-0.125575 0.08333,-0.25702 0.09996,-0.394153 0,0 -2.823693,-1.473425 -2.823693,-1.473425 v 0 c -0.005,0.07554 -0.009,0.151291 -0.02408,0.225711 -0.112973,-0.102649 -0.409631,0.02902 -0.558078,-0.0029 -0.361812,0.02959 -0.722203,0.07552 -1.077021,0.153862 -0.340017,0.05541 -0.683535,0.03354 -1.026798,0.02508 0,0 2.582156,1.876045 2.582156,1.876045 z" />
    <path
       style="fill:#1a1a1a;stroke-width:0.213697"
       id="path267"
       d="m 41.778417,51.506047 c 0.02717,0.563927 0.44425,0.900151 0.877231,1.193884 1.720027,1.072065 5.972416,3.437678 0.799812,0.485527 -0.556097,-0.317382 0.479339,0.320849 0.583486,0.393506 0.239606,0.169649 0.460299,0.368185 0.656953,0.585991 0.219104,0.193355 0.434322,0.388496 0.62441,0.6107 0.911964,0.968235 2.130647,1.650686 3.401891,2.060018 0.470724,0.109259 0.951284,0.152236 1.428289,0.229645 0.617654,0.08829 1.241275,0.109011 1.864024,0.126423 0.515182,0.01374 1.030549,0.0172 1.545885,0.01881 0.468735,-2.1e-4 0.937501,-0.0017 1.406221,-0.0061 0.562704,-0.0026 1.125411,-0.0037 1.688119,-0.0028 0.604643,0.0277 1.20122,-0.07472 1.800349,-0.137772 0.422782,-0.06753 0.814807,-0.226074 1.216693,-0.36337 0.324018,-0.160619 0.661232,-0.296844 1.003373,-0.415083 0.366935,-0.2144 0.735331,-0.41966 1.114171,-0.613066 0.528093,-0.205903 1.046208,-0.445086 1.531073,-0.739301 0.411928,-0.266985 0.76312,-0.612015 1.173025,-0.880803 0.04353,-0.106701 0.294908,-0.09879 0.347357,-0.190064 0.694207,-1.20803 -1.132403,-0.967519 -2.746927,-1.850181 -0.63353,0.04181 -1.269399,0.04099 -1.904107,0.04553 -0.842217,-0.02807 -1.6789,0.07248 -2.517318,0.134753 -0.596868,0.02693 -1.181863,0.157243 -1.775667,0.218954 -0.465987,0.0411 -0.934176,0.0408 -1.401468,0.05188 -0.59414,0.004 -1.188279,-0.0017 -1.782431,4.28e-4 -0.623614,0.01432 -1.24048,0.004 -1.859596,-0.0704 -0.795499,-0.104182 -1.549336,-0.361981 -2.313101,-0.593509 -0.775305,-0.279289 -1.584002,-0.447236 -2.402023,-0.53383 -0.908974,-0.02403 -1.814277,-0.06201 -2.719227,-0.155676 -0.792187,-0.09045 -1.586637,-0.153378 -2.381987,-0.207328 0,0 2.418219,1.781825 2.418219,1.781825 v 0 c 0.794198,0.05275 1.587368,0.119429 2.377347,0.218383 0.927312,0.100839 1.856961,0.138456 2.786243,0.210308 0.79838,0.105767 1.58122,0.283227 2.340418,0.556543 0.782051,0.243858 1.568276,0.476852 2.385053,0.573562 0.627837,0.05778 1.256223,0.05441 1.886343,0.04974 0.59581,0.0033 1.191596,6.41e-4 1.787409,-5.6e-5 0.480788,0.0038 0.962928,-8.55e-4 1.439883,-0.06941 0.572666,-0.08387 1.139461,-0.21297 1.719113,-0.242319 0.829783,-0.072 1.658995,-0.156014 2.493505,-0.122478 0.661731,0.0013 1.327905,-0.01408 1.986566,0.05469 -0.890945,-0.516676 -1.835188,-0.950788 -2.672834,-1.550024 -0.07761,-0.05552 0.325639,-0.369287 0.05387,-0.16385 -0.02994,0.02264 -0.0599,0.04526 -0.08972,0.06807 -0.03988,0.0305 -0.07958,0.06122 -0.119365,0.09184 -0.374613,0.294252 -0.719684,0.627527 -1.129157,0.874885 -0.488735,0.278857 -1.001039,0.511458 -1.525402,0.715237 -0.379735,0.180683 -0.738645,0.398698 -1.121876,0.57038 -0.335231,0.135734 -0.67338,0.263924 -1.00364,0.411441 -0.370018,0.143825 -0.749755,0.267959 -1.144041,0.324501 -0.589111,0.07606 -1.177444,0.14937 -1.773267,0.11243 -0.565127,8.55e-4 -1.130251,-2.13e-4 -1.695374,-0.0022 -0.472915,-0.0039 -0.945882,-0.0043 -1.418808,-0.0031 -0.504017,0.0021 -1.00813,0.0056 -1.512063,-0.0062 -0.619338,-0.02049 -1.239672,-0.05759 -1.850236,-0.169681 -0.47348,-0.08404 -0.964751,-0.10671 -1.410358,-0.303379 -1.078981,-0.543538 0.06775,0.02973 2.387835,1.401353 0.035,0.02069 -0.07874,-0.02269 -0.114531,-0.04198 -0.14161,-0.07632 -0.05394,-0.05897 -0.163702,-0.178311 -0.02837,-0.03085 -0.06624,-0.05136 -0.09936,-0.07704 -0.227846,-0.185038 -0.372935,-0.450099 -0.621246,-0.61718 -0.241452,-0.189168 -0.417094,-0.451513 -0.661864,-0.641543 -0.204019,-0.134787 -0.401735,-0.30424 -0.610635,-0.427546 -2.441009,-1.440835 -4.936494,-2.828343 -0.537216,-0.301855 0.09403,0.054 -0.183331,-0.115849 -0.274994,-0.173774 -0.364018,-0.219834 -0.819799,-0.41754 -0.926777,-0.871013 0,0 -2.843843,-1.44901 -2.843843,-1.44901 z" />
    <path
       style="fill:#1a1a1a;stroke-width:0.213697"
       d="m 40.084929,33.854111 c -0.276925,0 -0.830776,-0.276925 -0.830776,0 0,0.276926 1.093491,0.08757 0.830776,0 -0.464419,-0.154806 -0.983155,-0.07321 -1.453858,-0.207694 -0.435256,-0.124358 0.420209,-0.937032 0.623082,-1.03847 0.195018,-0.09751 1.403155,-0.466092 1.661552,-0.207694 0.04895,0.04895 -0.04895,0.15874 0,0.207694 0.08313,0.08313 0.263935,0.112484 0.415386,0.415388 0.394433,0.788864 -0.570341,1.310455 -1.038468,1.661551 -0.415388,0.311542 0,0.207694 -0.623082,0.623082 -0.377842,0.251895 -1.359421,-0.320951 -1.453858,-0.415388 -0.05498,-0.05498 0,-0.537561 0,-0.62308"
       id="path332" />
    <path
       style="fill:#1a1a1a;stroke-width:0.213697"
       d="m 57.946606,32.815641 c 0.05772,-0.705763 0.268555,-0.965053 0.830776,-1.246164 0.171099,-0.08555 0.412589,-0.207694 0.623083,-0.207694 0.162625,0 0.934836,-0.103635 1.03847,0 0.04895,0.04895 -0.04896,0.15874 0,0.207694 0.04895,0.04895 0.158738,-0.04895 0.207692,0 0.356732,0.356732 -0.314459,1.507242 -0.62308,1.661552 -0.286484,0.143241 -0.185778,-0.251529 -0.415388,0.207694 -0.03096,0.06192 0.04895,0.158741 0,0.207694 -0.09791,0.09791 -0.317481,-0.09791 -0.415388,0 -0.04895,0.04895 0.04895,0.158741 0,0.207694 -0.08093,0.08092 -0.704033,0 -0.830777,0 -0.138462,0 -0.388233,0.135773 -0.415388,0 -0.06789,-0.339436 0,-0.692313 0,-1.03847 z"
       id="path334" />
    <path
       style="fill:#1a1a1a;stroke-width:0.213697"
       d="m 69.785162,34.477192 c 0.114002,-1.188616 0.633281,-1.048671 1.246162,-1.661551 0.304178,-0.304178 0.391881,-0.538178 0.830776,-0.830776 0.422891,-0.281926 1.013709,-0.610701 1.453858,-0.830776 0.166154,-0.08308 0.456927,0.08308 0.623081,0 0.08757,-0.04378 0.120123,-0.163908 0.207694,-0.207692 0.393313,-0.196657 2.217249,-0.06739 2.492328,0.207692 0.04895,0.04895 -0.04895,0.15874 0,0.207694 0.04895,0.04895 0.158739,-0.04895 0.207694,0 0.09791,0.09791 -0.06192,0.291544 0,0.415388 0.243014,0.48603 0.358137,1.267472 0.207692,1.869246 -0.368223,1.472895 -1.607245,2.973771 -2.492326,4.153877 -0.532278,0.709707 -0.298496,0.121073 -0.830777,0.830777 -0.615325,0.820435 -1.176886,1.892294 -2.076938,2.492326 -0.08356,0.05571 -1.017319,0.601933 -1.03847,0.623083 -0.429725,0.429727 0.656679,-0.0168 -0.207692,0.415388 -0.06192,0.03096 -0.158741,-0.04895 -0.207694,0 -0.04896,0.04895 0.04895,0.15874 0,0.207694 -0.04896,0.04895 -0.145774,-0.03096 -0.207694,0 -0.589904,0.294951 -1.038471,0.695153 -1.038471,1.453858"
       id="path336" />
    <path
       style="fill:#1a1a1a;stroke-width:0.213697"
       d="m 27.207906,34.061806 c -0.336983,-1.347932 0.05026,-0.404488 -0.623083,-1.246165 -1.602664,-2.003331 -1.552554,-2.492327 -4.153879,-2.492327 -0.312841,0 -0.868049,-0.133148 -1.03847,0.207695 -0.227157,0.454315 0,1.568081 0,2.076938 0,0.619836 -0.149159,1.480299 0,2.076939 0.09676,0.387037 0.512774,0.707543 0.623082,1.03847 0.04379,0.131357 -0.03358,0.28106 0,0.415388 -0.125181,0.375914 0.336453,0.386274 0.415388,0.623082 0.18435,0.55305 0.231039,1.108501 0.415388,1.661551 0.06192,0.185766 0.327818,0.240246 0.415389,0.415388 0.873312,1.746627 2.320717,3.652687 4.153879,4.569267"
       id="path338" />
    <path
       style="fill:#1a1a1a;stroke-width:0.213697"
       d="m 42.78495,60.646627 c -0.253607,1.156933 0.338036,3.76285 0,4.776961 -0.03096,0.09288 -0.163908,0.120123 -0.207694,0.207694 -0.115681,0.231359 -0.09814,1.332906 -0.207694,1.661551 -0.172919,0.518759 -0.610895,1.111849 -0.830776,1.661552 -0.162615,0.406541 -0.190112,0.870704 -0.415389,1.246165 -0.462905,0.771511 -1.227062,1.434756 -1.869244,2.076938"
       id="path346" />
    <path
       style="fill:#1a1a1a;stroke-width:0.213697"
       d="m 63.96973,57.946606 c 0.246211,1.459624 -0.350707,3.37413 0,4.776962 0.650371,2.601483 1.590378,5.364454 4.153879,6.646205"
       id="path350" />
    <path
       style="fill:#1a1a1a;stroke-width:0.213697"
       d="m 40.708011,65.215894 c -0.916851,0.286283 -4.480405,-0.355972 -5.192349,0 -0.393685,0.196843 -0.785528,0.261843 -1.246162,0.415388 -0.175159,0.05839 -0.459068,-0.08201 -0.623083,0 -0.664684,0.332342 -1.051285,0.525643 -1.661552,0.830777 -0.185767,0.09288 -0.426045,-0.06568 -0.623082,0 -0.330275,0.11009 -0.515202,0.465294 -0.830774,0.623082 -0.373384,0.18669 -1.291422,0.707398 -1.661553,0.830774 -0.131357,0.04379 -0.284031,-0.04378 -0.415388,0 -0.185767,0.06192 -0.229619,0.353465 -0.415388,0.415388 -0.131358,0.04379 -0.281059,-0.03358 -0.415386,0 -1.002943,0.250737 0.0103,0.0987 -0.623082,0.415388 -1.417939,0.708969 -2.652903,1.73006 -3.946186,2.700021 -1.493937,1.120453 0.438314,-0.23062 -0.623082,0.830776 -0.369571,0.369572 -0.901475,0.578888 -1.246163,1.03847 -0.252224,0.336297 -0.09776,0.411328 -0.415388,0.623081 -0.128806,0.08587 -0.305923,0.09823 -0.415388,0.207694 -0.07223,0.07223 -0.714606,1.091272 -0.830776,1.246164 -0.272216,0.362956 -0.205954,0.619603 -0.415387,1.03847 -0.750612,1.501223 -1.281674,3.002408 -1.869246,4.569266 -0.324562,0.865499 -0.298519,1.834523 -0.623082,2.70002 -2.036008,5.429357 -1.661551,11.30244 -1.661551,17.030907 0,1.84669 -0.415388,3.56354 -0.415388,5.40004"
       id="path352" />
    <path
       style="fill:#1a1a1a;stroke-width:0.213697"
       d="m 67.085141,65.0082 c 1.443034,0.05457 2.712763,-0.207694 4.153877,-0.207694 0.498057,0 1.180517,0.12026 1.661552,0 0.819344,-0.204835 1.819176,-0.383861 2.700021,-0.207694 0.43829,0.08766 0.892003,0.594669 1.246164,0.830776 0.257612,0.171742 0.573163,0.243647 0.830775,0.415388 0.31953,0.21302 0.511248,0.617757 0.830776,0.830777 0.128806,0.08587 0.305924,0.09823 0.415388,0.207694 0.218928,0.218928 0.243646,0.573162 0.415388,0.830774 0.833946,1.250919 1.476303,2.544704 2.076939,3.946185 1.367837,3.19162 2.962842,6.561573 3.530797,9.969309 0.115964,0.695784 0.523418,1.379287 0.623082,2.076938 0.212833,1.489843 -0.03986,3.083957 0.207694,4.569268 0.359511,2.157062 0.207694,4.434871 0.207694,6.646205 0,3.392335 0,6.784674 0,10.177004"
       id="path354" />
    <path
       style="fill:#550000;stroke-width:0.213697"
       id="path409"
       d="m 36.721333,67.279569 c -2.477124,4.215849 -5.231636,8.263833 -8.008322,12.286231 0,0 1.657193,0.974111 1.657193,0.974111 v 0 c 2.767495,-4.052467 5.529302,-8.182851 9.041704,-11.639837 0,0 -2.690575,-1.620505 -2.690575,-1.620505 z" />
    <path
       style="fill:#550000;stroke-width:0.213697"
       id="path411"
       d="m 38.22201,69.113596 c -0.277404,0.675168 -0.320163,0.807487 -0.736824,1.606327 -1.747117,3.349627 -3.811018,6.534861 -5.801738,9.741527 -0.557896,0.886876 -1.115793,1.77375 -1.673687,2.660626 0,0 1.728959,1.00443 1.728959,1.00443 v 0 c 0.537602,-0.897809 1.075205,-1.795619 1.612809,-2.693428 0.595201,-0.931821 1.175723,-1.873183 1.785603,-2.795462 1.811499,-2.739405 3.77307,-5.373992 5.830876,-7.932453 0,0 -2.745998,-1.591567 -2.745998,-1.591567 z" />
    <path
       style="fill:#550000;stroke-width:0.213697"
       id="path413"
       d="m 44.124818,71.543151 c -3.016788,4.720774 -6.531884,9.095325 -9.892369,13.569959 -0.922888,1.228864 -1.830504,2.469126 -2.745756,3.703686 0,0 1.226322,0.726112 1.226322,0.726112 v 0 c 0.902865,-1.240512 1.78121,-2.499248 2.708597,-3.721536 3.142255,-4.141459 6.545561,-8.194251 10.319624,-11.779494 0.328999,-0.312538 0.681601,-0.599253 1.0224,-0.898879 0,0 -2.638818,-1.599848 -2.638818,-1.599848 z" />
    <path
       style="fill:#550000;stroke-width:0.213697"
       id="path415"
       d="m 54.633376,69.424625 c -3.97256,5.420815 -8.166904,10.674825 -12.371785,15.915884 -4.456634,5.520404 -2.289162,2.81705 -6.504888,8.108076 0,0 1.11376,0.662387 1.11376,0.662387 v 0 c 3.98586,-5.431668 1.892773,-2.68492 6.294748,-8.228414 3.339679,-3.921769 3.647199,-4.377201 7.08765,-8.060306 2.180504,-2.334292 4.47751,-4.801202 7.069735,-6.696716 0,0 -2.68922,-1.700911 -2.68922,-1.700911 z" />
    <path
       style="fill:#550000;stroke-width:0.213697"
       id="path417"
       d="m 61.696222,72.39568 c -0.504207,0.937855 -0.498394,0.962516 -1.278219,2.123144 -3.225178,4.800092 -6.876462,9.313253 -10.425365,13.873058 0,0 1.006614,0.601125 1.006614,0.601125 v 0 c 1.102815,-1.362008 2.182567,-2.743017 3.308444,-4.086022 3.183924,-3.79795 6.566625,-7.43825 10.124929,-10.887387 0,0 -2.736403,-1.623918 -2.736403,-1.623918 z" />
    <path
       style="fill:#550000;stroke-width:0.213697"
       id="path419"
       d="m 68.936533,74.857163 c -3.564538,5.46124 -7.910329,10.361116 -12.099986,15.339262 0,0 0.265491,0.160852 0.265491,0.160852 v 0 c 4.649726,-4.798624 9.275403,-9.64421 14.398301,-13.949658 0,0 -2.563806,-1.550456 -2.563806,-1.550456 z" />
    <path
       style="fill:#550000;stroke-width:0.213697"
       id="path421"
       d="m 72.808324,78.924363 c -3.077136,3.782438 -6.364829,7.387864 -9.628574,11.008544 0,0 1.696133,1.025896 1.696133,1.025896 v 0 c 3.259926,-3.708763 6.600847,-7.430635 10.57746,-10.392114 0,0 -2.645019,-1.642326 -2.645019,-1.642326 z" />
    <path
       style="fill:#550000;stroke-width:0.213697"
       id="path423"
       d="m 77.412528,91.284606 c -1.658718,1.540469 -3.427314,2.959006 -5.1678,4.404528 0,0 1.712646,1.081436 1.712646,1.081436 v 0 c 1.947216,-1.361357 3.873152,-2.777624 5.998497,-3.85749 0,0 -2.543343,-1.628474 -2.543343,-1.628474 z" />
    <path
       style="fill:#550000;stroke-width:0.213697"
       id="path425"
       d="m 82.083505,99.716494 c -1.163558,0.581056 -0.506436,0.244736 -1.965077,1.021146 0,0 2.229131,1.48048 2.229131,1.48048 v 0 c 1.663666,-0.6195 0.899613,-0.39238 2.274619,-0.73783 0,0 -2.538673,-1.763796 -2.538673,-1.763796 z" />
    <path
       style="fill:#550000;stroke-width:0.213697"
       id="path427"
       d="m 73.188533,86.807901 c -3.773815,3.757326 -7.906506,7.128618 -12.039565,10.477785 0,0 1.705085,1.065219 1.705085,1.065219 v 0 c 4.089556,-3.568628 8.238119,-7.14997 12.950482,-9.883016 0,0 -2.616002,-1.659988 -2.616002,-1.659988 z" />
    <path
       style="fill:#550000;stroke-width:0.213697"
       id="path429"
       d="m 48.21873,91.404227 c -2.729184,2.619412 -5.67034,5.000255 -8.604942,7.382511 0,0 1.736478,1.091029 1.736478,1.091029 v 0 c 2.685633,-2.10669 5.381854,-4.21611 8.27436,-6.036956 0.661507,-0.416423 0.741735,-0.445392 1.28528,-0.713453 0,0 -2.691176,-1.723131 -2.691176,-1.723131 z" />
    <path
       style="fill:#550000;stroke-width:0.213697"
       id="path431"
       d="m 29.682876,95.989974 c -2.181836,1.900167 -4.359496,3.805592 -6.540516,5.706916 -0.406163,0.355 -0.812326,0.70999 -1.218488,1.06499 0,0 2.213779,1.36858 2.213779,1.36858 v 0 c 0.378222,-0.37015 0.756446,-0.7403 1.134668,-1.11045 1.396165,-1.25521 2.796954,-2.47849 4.31247,-3.590197 0.703362,-0.515949 1.438887,-1.030589 2.20602,-1.453768 0.172255,-0.09502 0.357579,-0.164143 0.536368,-0.246213 0,0 -2.644301,-1.739858 -2.644301,-1.739858 z" />
    <path
       style="fill:#550000;stroke-width:0.213697"
       id="path433"
       d="m 55.205105,96.44115 c -2.108617,1.813534 -4.440767,3.343007 -6.771954,4.85059 0,0 2.189059,1.39996 2.189059,1.39996 v 0 c 2.323867,-1.63505 4.686358,-3.247973 7.225758,-4.532581 0,0 -2.642863,-1.717969 -2.642863,-1.717969 z" />
    <path
       style="fill:#550000;stroke-width:0.213697"
       id="path435"
       d="m 73.548339,97.147083 c -0.139454,0.06139 -0.281939,0.116313 -0.418363,0.184168 -0.768238,0.382109 -1.517801,0.800839 -2.283365,1.188274 -1.485678,0.751864 -1.981927,0.978171 -3.506825,1.707175 0,0 2.03171,1.34471 2.03171,1.34471 v 0 c 2.023134,-0.92092 4.101327,-1.973099 6.265919,-2.522565 0.170404,-0.04326 0.347217,-0.05545 0.520826,-0.08317 0,0 -2.609902,-1.818594 -2.609902,-1.818594 z" />
    <path
       style="fill:#333333;stroke-width:0.213697"
       id="path437"
       d="m 78.567011,98.712031 c -0.246021,0.155042 -0.492044,0.310083 -0.738067,0.465124 0,0 2.398933,1.586455 2.398933,1.586455 v 0 c 0.299629,-0.10204 0.599259,-0.20407 0.898888,-0.30611 0,0 -2.559754,-1.745469 -2.559754,-1.745469 z" />
    <path
       style="fill:#333333;stroke-width:0.213697"
       d="m 32.815641,28.869456 c 0.346157,0 0.695793,0.04895 1.03847,0 0.769711,-0.109958 1.505569,-0.674963 2.284633,-0.830776 2.185646,-0.437128 4.019124,-1.246163 6.230818,-1.246163 0.295799,0 0.764252,-0.09141 1.03847,0 0.404949,0.134984 0.73657,0.472134 1.038468,0.623083 0.125876,0.06294 0.53605,0.120659 0.623083,0.207694 0.184369,0.184369 0.07925,0.989273 0.207694,1.246162 0.256647,0.513295 0.207694,-0.07169 0.207694,0.415388"
       id="path567" />
    <path
       style="fill:#333333;stroke-width:0.213697"
       d="m 52.961953,27.4156 c 0.378312,-0.189156 0.995455,-0.546682 1.453856,-0.623083 0.409736,-0.06829 0.838843,0.08146 1.246165,0 0.151799,-0.03036 0.276925,-0.138462 0.415388,-0.207694 0.623082,-0.06923 1.250859,-0.10463 1.869244,-0.207694 1.823174,-0.303862 -0.317479,-0.0764 1.03847,-0.415388 0.322819,-0.0807 1.806963,-0.280398 2.076939,-0.415388 0.08757,-0.04378 0.114811,-0.176731 0.207694,-0.207694 0.144878,-0.04829 2.983844,-0.06578 3.115409,0 0.49003,0.245016 0.858059,1.03847 1.246164,1.03847"
       id="path569" />
    <path
       style="fill:#333333;stroke-width:0.213697"
       d="m 36.138744,22.22325 c -0.0077,0.944649 0.290908,2.097913 0.830776,2.907715 -0.02073,0.411454 0.305922,0.09823 0.415388,0.207694 0.04895,0.04895 -0.04895,0.15874 0,0.207694 0.154196,0.154197 1.466448,0 1.661551,0"
       id="path630" />
    <path
       style="fill:#333333;stroke-width:0.213697"
       d="m 39.046459,17.653984 c 1.168317,0.666093 1.912471,2.091348 3.115409,2.492327 0.668366,0.222789 1.407591,0.288407 2.076938,0.623082 0.393299,0.196648 0.548893,0.415388 1.038471,0.415388"
       id="path632" />
    <path
       style="fill:#333333;stroke-width:0.213697"
       d="m 46.523441,15.784739 c -0.05246,1.199435 -0.512101,2.728561 -0.207694,3.946185 0.135026,0.540103 0.597913,0.988133 0.830776,1.453857 0.25577,0.51154 -0.602881,-0.187493 0.207694,0.623081 0.04895,0.04895 0.138463,0 0.207692,0 0.06923,0.138463 0.138463,0.276925 0.207694,0.415388"
       id="path634" />
    <path
       style="fill:#333333;stroke-width:0.213697"
       d="m 50.67732,16.823208 c 0,2.284634 0,4.569266 0,6.853901"
       id="path636" />
    <path
       style="fill:#333333;stroke-width:0.213697"
       d="m 56.077362,16.407821 c 0,1.661551 0,3.323103 0,4.984653"
       id="path638" />
    <path
       style="fill:#333333;stroke-width:0.213697"
       d="m 46.315747,16.615514 c 2.799979,1.399991 1.223694,0.392919 4.361573,3.530797 1.806869,1.806869 1.07369,0.883608 2.284633,2.700021"
       id="path640" />
    <path
       style="fill:#333333;stroke-width:0.213697"
       d="m 63.138956,19.315536 c -3.340201,-1.484534 -6.738455,-1.910674 -10.384697,-1.661552 3.04941,-0.969125 3.115891,0.237709 5.400042,1.869246"
       id="path642" />
    <path
       style="fill:#333333;stroke-width:0.213697"
       d="m 42.992644,19.107842 c 3.202354,-0.683299 7.837811,0.11874 10.592391,0.415387 4.898224,0.527502 4.598069,0.514097 7.892368,1.246164"
       id="path644" />
    <path
       style="fill:#333333;stroke-width:0.213697"
       d="m 41.538786,17.653984 c 4.877892,-0.770819 9.650112,1.246164 14.538576,1.246164"
       id="path646" />
    <path
       style="fill:#333333;stroke-width:0.213697"
       d="m 51.715788,15.784739 c 0.415389,0 0.840669,-0.09011 1.246165,0 1.043783,0.231951 5.145411,1.837647 5.815429,2.076939 2.136755,0.763127 4.526902,1.217921 6.438512,2.492327"
       id="path648" />
    <path
       style="fill:#2b0000;stroke-width:0.213697"
       d="m 29.700232,102.6008 c -2.293996,-0.34943 -6.215303,0.57698 -8.307758,-0.20769 -1.456488,-0.54618 -0.248697,-0.2282 -1.453857,-0.83078 -0.473723,-0.23686 -0.768021,-0.0822 -1.038469,-0.62308 -0.346709,-0.69342 0.283656,-3.947559 0.415388,-4.361571 1.979234,-6.220451 5.244303,-7.803395 9.138532,-12.253944 1.200497,-1.371997 2.314415,-2.84854 3.323103,-4.361571 1.790433,-2.685647 -0.427796,0.562339 1.03847,-2.07694 0.477837,-0.860109 1.139211,-1.65658 1.661551,-2.492327 1.007749,-1.612398 1.915826,-3.277481 3.115411,-4.776961 0.451887,-0.564861 1.120371,-0.795179 1.66155,-1.246163 0.981905,-0.818253 1.881062,-1.821752 3.115409,-2.284632 2.798759,-1.049536 5.782655,-1.082804 8.723144,-1.246165 4.978471,-0.276581 -0.820497,-0.207694 4.153879,-0.207694 4.863562,0 8.282743,-0.892325 12.253942,2.284633 1.093721,0.874977 2.20996,2.639354 2.700023,3.946185 1.012566,2.700177 -0.831458,-1.403467 0.62308,1.869244 0.355754,0.800447 0.938479,1.464144 1.246164,2.284635 0.100228,0.267273 0.107466,0.563502 0.207694,0.830776 0.921422,2.457127 2.660316,4.635702 3.738491,7.061592 0.568523,1.279179 1.012744,2.622842 1.453857,3.946185 0.180533,0.5416 0.214934,1.127005 0.415388,1.661553 1.461585,3.897563 3.677908,7.528866 4.361573,11.630855 0.122923,0.73754 0.415388,1.32666 0.415388,2.07694 0,0.80688 -1.964124,0.95044 -2.492327,1.03847 -2.715825,0.45264 -5.049719,0.41539 -7.89237,0.41539 -1.661552,0 -3.323744,0.0461 -4.984655,0 -2.820255,-0.0783 -2.083831,-0.23835 -4.77696,-0.62308 -1.733188,-0.2476 -3.446055,-0.25663 -5.192347,-0.41539 -1.043358,-0.0948 -2.085694,-0.22231 -3.115411,-0.41539 -1.24947,-0.23427 -1.703751,-0.53047 -2.907715,-0.62308 -2.723168,-0.20947 -5.561446,-0.37934 -8.307756,-0.20769 -4.218238,0.26364 1.220237,0.18999 -3.738491,0.41539 -2.693999,0.12245 -5.404865,-0.0929 -8.100064,0 -0.971131,0.0335 -1.936925,0.16548 -2.907715,0.20769 -3.098726,0.13473 -0.708298,-0.19349 -3.115409,0.20769"
       id="path784" />
    <path
       style="fill:#2b0000;stroke-width:0.213697"
       d="m 14.953963,104.05466 c 0.117133,-1.28264 -0.269287,-2.70604 0.207694,-3.94619 0.635987,-1.653561 1.922378,-3.136044 2.907715,-4.569261 1.005429,-1.462443 1.776755,-3.058468 2.700021,-4.569268 0.730983,-1.196153 1.613365,-2.300138 2.284633,-3.530797 0.617276,-1.131672 1.415808,-2.737013 1.869245,-3.946183 0.594947,-1.586521 -0.286003,-0.05107 0.623082,-1.869246 1.450318,-2.900635 2.909036,-5.069581 4.776961,-7.684676 1.03643,-1.451002 3.08094,-4.823212 4.569266,-5.81543 2.261814,-1.507875 5.351994,-2.00719 7.89237,-2.700021 0.844857,-0.230416 1.64747,-0.60036 2.492327,-0.830776 0.681145,-0.185767 1.40069,-0.212513 2.07694,-0.415388 1.307927,-0.392377 0.728095,-0.488197 2.076939,-0.62308 3.031189,-0.303121 6.088649,-0.405233 9.138532,-0.623082 0.828665,-0.05919 1.664,0.06372 2.492327,0 3.341893,-0.257069 5.861877,-0.156379 9.138535,0.207694 0.550461,0.06116 1.111977,-0.0687 1.66155,0 1.167238,0.145903 2.180785,0.602311 3.323103,0.830774 1.447787,0.289559 2.575156,0.882388 3.530797,2.07694 0.693247,0.866558 0.218169,0.374092 0.623082,1.453857 0.217424,0.579798 0.652842,1.068443 0.830776,1.661552 0.121006,0.403357 0.105558,0.837619 0.207692,1.246165 0.106197,0.424782 0.309194,0.821378 0.415388,1.246162 0.293902,1.175608 0.307478,2.343773 0.415389,3.530797 0.195549,2.151038 0.427962,4.292188 0.623082,6.438512 0.193447,2.127918 -0.142153,4.306215 0,6.438512 0.194928,2.923904 0.508677,5.824261 0.830776,8.723144 0.08326,0.749324 -0.106583,1.538553 0,2.284635 0.188814,1.321694 0.457649,2.622724 0.623082,3.946184 0.09758,0.78062 0.495461,1.51891 0.62308,2.28463 0.101669,0.61001 0.758981,3.91221 -0.207694,4.15388 -0.201492,0.0504 -0.417474,-0.0294 -0.62308,0 -3.096862,0.44241 -6.251176,0.77376 -9.346229,0 -4.510678,-1.12767 -8.812499,-3.26973 -13.500103,-3.73849 -1.956119,-0.19561 -4.054929,0 -6.023126,0 -2.680651,0 -5.425741,-0.16714 -8.100062,0 -1.728705,0.10804 -3.458228,0.31905 -5.192348,0.41539 -4.126951,0.22927 -8.34686,0.0209 -12.461637,-0.20769 -2.749603,-0.15276 -5.552168,0 -8.307757,0 -0.731626,0 -1.55955,0.10358 -2.284633,0 -1.811531,-0.2588 -3.549122,-0.41539 -5.400042,-0.41539"
       id="path786" />
    <path
       style="fill:#2b0000;stroke-width:0.213697"
       d="m 85.362206,97.200759 c -0.246606,1.120571 0.437448,9.116471 -0.207694,9.761611 -0.336506,0.33651 -1.751419,-0.34469 -1.869245,-0.41538 -1.98076,-1.18846 -3.919823,-3.12699 -4.569267,-5.40005 -0.425876,-1.490559 -0.787434,-7.008119 -0.207694,-8.515446 0.494817,-1.286528 2.284632,-2.600004 2.284632,-4.153879 0,-1.265904 -1.236883,-1.814718 -1.869244,-2.700021 -0.324424,-0.454193 -0.581159,-0.954624 -0.830776,-1.453859 -0.94925,-1.898499 -0.65836,-4.992592 -0.830777,-7.061594 -0.05307,-0.63691 -0.76376,-2.003272 -0.415386,-2.70002 0.204006,-0.408014 1.024989,-0.366238 1.246163,-0.415388 0.417991,-0.09289 2.426256,-0.448424 2.907715,-0.207694 0.379576,0.18979 0.708697,0.566959 1.03847,0.830776 0.568286,0.454629 1.083832,1.020569 1.66155,1.453858 0.123846,0.09288 0.305924,0.09823 0.415388,0.207694 0.213808,0.213806 0.201581,0.409275 0.415389,0.62308 0.908895,0.908896 0.989112,3.699396 1.246164,4.984656 0.03036,0.151799 0.165164,0.266538 0.207694,0.415388 0.762985,2.670452 -0.09505,-0.154894 0.207694,1.66155 0.125923,0.755545 0.329713,1.513561 0.415388,2.284635 0.152005,1.368042 -0.124653,2.782702 0,4.153877 0.140942,1.550364 0.207694,2.996656 0.207694,4.569268 0,5.231369 -0.0443,10.368059 -0.623082,15.577039"
       id="path788" />
    <path
       style="fill:#2b0000;stroke-width:0.213697"
       d="m 38.838765,66.669753 c -2.215401,0 -4.430805,0 -6.646206,0 -0.938283,0 -2.247808,-0.226109 -3.115409,0.207694 -2.216818,1.108409 -4.15783,2.703531 -6.023124,4.361571 -0.49374,0.43888 -0.796042,1.003736 -1.246164,1.453858 -0.176505,0.176505 -0.446575,0.238881 -0.623081,0.415388 -0.539,0.538999 -0.963557,1.280884 -1.453857,1.869245 -0.520577,0.624691 -1.190109,1.209227 -1.661552,1.869246 -1.845966,2.584351 -2.133167,5.699921 -2.700021,8.723145 -0.340523,1.816119 -0.776896,3.569023 -1.03847,5.400041 -0.362313,2.536193 0.0114,-0.04558 -0.623082,2.492327 -0.372147,1.488593 -0.892695,3.734606 -1.038469,5.19235 -0.03444,0.344438 0.03823,0.694429 0,1.03847 -0.191613,1.724512 -0.342718,3.063372 0,4.776962 0.02715,0.13577 -0.06192,0.29154 0,0.41539 0.08757,0.17514 0.297898,0.25873 0.415388,0.41538 0.15178,0.20238 0.161285,0.49603 0.415388,0.62309 0.338697,0.16934 0.890102,-0.28822 1.038469,-0.41539 2.061034,-1.7666 3.867175,-4.01668 5.400042,-6.23082 1.094324,-1.58069 2.500185,-3.958757 3.530798,-5.607738 0.875253,-1.400404 1.872597,-2.724692 2.70002,-4.153877 1.766895,-3.051911 2.720064,-6.453291 4.361574,-9.553921 0.305588,-0.577227 0.746381,-1.077378 1.038468,-1.661552 0.333463,-0.666924 0.527942,-1.395562 0.830776,-2.076939 0.94217,-2.119881 2.153397,-4.114392 3.115409,-6.230817 0.154274,-0.339407 0.234329,-0.712566 0.415388,-1.038471 0.380291,-0.684524 1.082654,-1.467084 1.246164,-2.284632 0.06789,-0.339436 -0.08395,-0.70265 0,-1.038471 0.159549,-0.638197 0.889385,-2.076938 1.661551,-2.076938"
       id="path790" />
  </g>
</svg>
